# xmcd
#
# Track frame offsets:
#   150
#   26686
#   50470
#   70465
#   91707
#   106706
#   126735
#   154964
#   176092
#   199431
#   221237
#   240013
#   264991
#
# Disc length: 7561 seconds
#
# Revision: 0
# Processed by: cddbd v1.5.2PL0 Copyright (c) Steve Scherf et al.
# Submitted via: threefifteen 2.9.0
#
DISCID=ba1d870d
DTITLE=Keith Urban - Love, Pain and the whole crazy thing
DYEAR=1900
DGENRE=Country
TTITLE0=Once In A Lifetime
TTITLE1=Shine
TTITLE2=I Told You So
TTITLE3=I Can't Stop Loving You
TTITLE4=Won't Let You Down
TTITLE5=Faster Car
TTITLE6=Stupid Boy
TTITLE7=Used To The Pain
TTITLE8=Raise The Barn
TTITLE9=God Made Woman
TTITLE10=Tu Compania
TTITLE11=Everybody
TTITLE12=Got It Right This Time
EXTD=
EXTT0=
EXTT1=
EXTT2=
EXTT3=
EXTT4=
EXTT5=
EXTT6=
EXTT7=
EXTT8=
EXTT9=
EXTT10=
EXTT11=
EXTT12=
PLAYORDER=
